<?xml version="1.0" standalone="no"?>
<!DOCTYPE svg PUBLIC "-//W3C//DTD SVG 20010904//EN"
 "http://www.w3.org/TR/2001/REC-SVG-20010904/DTD/svg10.dtd">
<svg version="1.0" xmlns="http://www.w3.org/2000/svg"
 width="1000.000000pt" height="1000.000000pt" viewBox="0 0 1000.000000 1000.000000"
 preserveAspectRatio="xMidYMid meet">
<metadata>
Created by potrace 1.14, written by Peter Selinger 2001-2017
</metadata>
<g transform="translate(0.000000,1000.000000) scale(0.100000,-0.100000)"
fill="#000000" stroke="none">
<path d="M4659 9986 c-2 -2 -47 -7 -99 -11 -52 -3 -102 -8 -110 -10 -8 -2 -36
-7 -62 -10 -122 -13 -152 -18 -278 -41 -74 -14 -164 -32 -200 -40 -36 -9 -72
-17 -80 -19 -173 -38 -555 -160 -677 -216 -24 -10 -45 -19 -49 -19 -27 0 -397
-180 -553 -269 -69 -39 -126 -71 -127 -71 -2 0 -32 -19 -66 -42 -35 -23 -81
-53 -103 -67 -183 -118 -461 -334 -623 -486 -561 -524 -957 -1087 -1247 -1775
-109 -260 -238 -680 -279 -910 -3 -19 -8 -46 -11 -60 -3 -14 -8 -41 -11 -60
-3 -19 -7 -42 -9 -50 -5 -16 -21 -125 -30 -205 -3 -27 -8 -63 -10 -80 -27
-183 -27 -939 0 -1105 2 -14 6 -45 10 -70 13 -104 22 -167 40 -270 5 -28 22
-114 29 -145 46 -210 75 -318 145 -530 136 -415 316 -790 557 -1157 88 -135
209 -304 265 -373 172 -208 247 -292 385 -430 125 -125 202 -196 279 -260 33
-28 62 -53 65 -56 3 -3 48 -39 100 -80 508 -399 1079 -695 1688 -874 52 -15
99 -28 105 -29 7 -1 21 -5 32 -9 11 -3 31 -9 45 -11 14 -3 86 -19 160 -36 74
-16 151 -32 170 -35 19 -3 60 -10 90 -15 30 -5 73 -11 95 -14 22 -3 56 -8 75
-11 19 -3 55 -7 80 -9 25 -3 77 -9 115 -13 150 -16 862 -8 986 12 13 2 49 6
79 9 48 6 93 12 215 32 17 2 53 9 80 14 28 5 62 12 78 14 15 3 35 7 45 10 9 3
28 7 42 10 14 2 43 9 65 14 22 6 51 13 65 16 93 19 363 103 520 161 1087 407
1981 1154 2575 2155 64 108 233 435 264 511 8 19 22 52 31 74 168 386 321 961
356 1330 2 28 6 59 9 70 19 88 29 811 13 970 -14 137 -28 260 -34 295 -8 52
-33 201 -39 230 -18 91 -30 147 -52 235 -13 55 -31 125 -38 155 -18 72 -114
361 -158 475 -319 827 -904 1611 -1597 2140 -36 27 -69 53 -75 57 -237 188
-679 444 -1005 583 -36 15 -78 33 -95 41 -147 63 -459 166 -655 215 -152 38
-137 34 -185 43 -22 4 -60 12 -85 17 -73 15 -90 19 -190 34 -97 15 -137 20
-225 30 -27 3 -70 8 -95 11 -55 7 -795 16 -801 10z"/>
</g>
</svg>
